<?xml version="1.0" encoding="UTF-8"?>
<svg width="28px" height="34px" viewBox="0 0 28 34" version="1.1" xmlns="http://www.w3.org/2000/svg" xmlns:xlink="http://www.w3.org/1999/xlink">
    <!-- Generator: Sketch 63.1 (92452) - https://sketch.com -->
    <title>ic_Secure</title>
    <desc>Created with Sketch.</desc>
    <g id="Page-1" stroke="none" stroke-width="1" fill="none" fill-rule="evenodd">
        <g id="Finance-Saas-Landingpage" transform="translate(-841.000000, -1983.000000)">
            <g id="Group-8-Copy-2" transform="translate(835.000000, 1714.000000)">
                <g id="Group-6" transform="translate(0.000000, 266.000000)">
                    <g id="ic_Secure">
                        <rect id="Rectangle" opacity="0.100000001" x="0" y="0" width="40" height="40" rx="10"></rect>
                        <g id="Group-10-Copy" transform="translate(7.000000, 4.000000)">
                            <path d="M13.1239062,0.280422419 C12.9435728,0.182031504 12.727443,0.183412341 12.5484606,0.283874688 C12.5484606,0.283874688 10.5294571,2.59076869 7.37269987,4.35928745 C5.26819505,5.53829995 3.05369468,6.38700818 0.729198778,6.90541212 C0.535357304,7.01416002 0.415135135,7.22198934 0.415135135,7.44811581 L0.415135135,14.0310918 C0.422226916,21.1411317 4.54287695,27.5734823 10.9153296,30.4219862 L12.55589,31.152841 C12.7092071,31.2211968 12.8837995,31.221542 13.0374543,31.1535314 L14.8860396,30.3374045 C21.3766882,27.550697 25.5993246,21.0562047 25.6,13.8595118 L25.6,7.44811581 C25.6,7.2195727 25.4767384,7.00932682 25.2795199,6.90195985 C22.6593848,6.23685663 20.4004898,5.38744941 18.5028347,4.35373821 C15.6563521,2.80317139 13.1239062,0.280422419 13.1239062,0.280422419 Z" id="Combined-Shape" stroke="#757AE9" stroke-width="2"></path>
                            <path d="M12.813426,4.08667374 C12.9094855,4.07320868 13.0088404,4.08987415 13.0970588,4.1368033 C13.0970588,4.1368033 15.0450941,6.02886503 17.2346961,7.19179014 C18.6944308,7.96707355 20.4320424,8.60412896 22.4475309,9.10295637 C22.5992374,9.1834816 22.6940541,9.34116601 22.6940541,9.51257335 L22.6940541,9.51257335 L22.6940541,14.3211203 C22.6935345,19.71864 19.4453527,24.5895092 14.452546,26.6795399 L14.452546,26.6795399 L13.0305573,27.2916351 C12.9616097,27.3213897 12.8871816,27.3336993 12.8137184,27.3286154 Z" id="Combined-Shape" fill="#BABCF4" fill-rule="nonzero"></path>
                            <path d="M11.5235352,20.0563241 L18.2016809,13.480919 C18.6114852,13.0774195 19.2759091,13.0774195 19.6857133,13.480919 C20.0955176,13.8844186 20.0955176,14.5386206 19.6857133,14.9421202 L12.2655514,22.2481258 C11.8557471,22.6516253 11.1913232,22.6516253 10.781519,22.2481258 L6.32942179,17.8645224 C5.91961756,17.4610229 5.91961756,16.8068208 6.32942179,16.4033213 C6.73922602,15.9998217 7.40364996,15.9998217 7.81345419,16.4033213 L11.5235352,20.0563241 Z" id="Path-Copy" fill="#FFFFFF"></path>
                            <path d="M11.5235352,19.0563241 L18.2016809,12.480919 C18.6114852,12.0774195 19.2759091,12.0774195 19.6857133,12.480919 C20.0955176,12.8844186 20.0955176,13.5386206 19.6857133,13.9421202 L12.2655514,21.2481258 C11.8557471,21.6516253 11.1913232,21.6516253 10.781519,21.2481258 L6.32942179,16.8645224 C5.91961756,16.4610229 5.91961756,15.8068208 6.32942179,15.4033213 C6.73922602,14.9998217 7.40364996,14.9998217 7.81345419,15.4033213 L11.5235352,19.0563241 Z" id="Path" fill="#757AE9"></path>
                        </g>
                    </g>
                </g>
            </g>
        </g>
    </g>
</svg>